<svg xmlns="http://www.w3.org/2000/svg" viewBox="0 0 240 240" width="240" height="240" role="img" aria-label="Huile végétale">
  <title>Huile végétale</title>
  <rect width="240" height="240" rx="36" fill="#fbe9cf"/>
  <ellipse cx="120" cy="196" rx="78" ry="12" fill="#000" opacity=".07"/>
  <rect x="104" y="30" width="32" height="22" rx="5" fill="#2350a0"/>
  <path d="M108 52 h24 v18 q30 14 30 44 v70 q0 12 -12 12 h-60 q-12 0 -12 -12 v-70 q0 -30 30 -44z" fill="#e8f1f3" stroke="#9fb4bb" stroke-width="3"/>
  <path d="M84 118 h72 v66 q0 10 -10 10 h-52 q-10 0 -10 -10z" fill="#f1c232"/>
  <rect x="88" y="128" width="64" height="34" rx="6" fill="#fff" opacity=".92"/>
  <path d="M98 145 h44" stroke="#f1c232" stroke-width="5" stroke-linecap="round"/>
  <path d="M94 76 q-8 14 -8 34" stroke="#fff" stroke-width="6" stroke-linecap="round" fill="none" opacity=".7"/>
</svg>
